<mxfile host="app.diagrams.net" modified="2023-09-07T20:26:53.718Z" agent="Mozilla/5.0 (Windows NT 10.0; Win64; x64) AppleWebKit/537.36 (KHTML, like Gecko) Chrome/114.0.0.0 YaBrowser/23.7.4.971 Yowser/2.5 Safari/537.36" version="21.7.2" etag="5Xn56nXR3_vlXMvC9XZR" type="github">
  <diagram name="Страница — 1" id="vQFvqb677pZ0hSL8vc41">
    <mxGraphModel>
      <root>
        <mxCell id="0" />
        <mxCell id="1" parent="0" />
      </root>
    </mxGraphModel>
  </diagram>
</mxfile>
